<svg width="29" height="35" viewBox="0 0 29 35" fill="none" xmlns="http://www.w3.org/2000/svg">
<path d="M23.747 18.314C23.7638 17.0121 24.1096 15.7355 24.7523 14.6032C25.395 13.4708 26.3137 12.5194 27.4229 11.8375C26.7182 10.8311 25.7887 10.0029 24.708 9.41869C23.6273 8.83445 22.4252 8.51024 21.1973 8.47182C18.5779 8.19687 16.0386 10.0392 14.7038 10.0392C13.3432 10.0392 11.2881 8.49912 9.07509 8.54465C7.64367 8.59089 6.24863 9.00715 5.0259 9.75284C3.80317 10.4985 2.79446 11.5483 2.09804 12.7997C-0.918627 18.0227 1.33154 25.6988 4.2213 29.9207C5.66712 31.988 7.35686 34.2973 9.56787 34.2154C11.7315 34.1257 12.5395 32.8358 15.1512 32.8358C17.7386 32.8358 18.4967 34.2154 20.7526 34.1634C23.0742 34.1257 24.537 32.0868 25.9321 29.9999C26.9709 28.5269 27.7703 26.8988 28.3006 25.1761C26.9518 24.6056 25.8007 23.6507 24.991 22.4304C24.1812 21.2102 23.7486 19.7785 23.747 18.314Z" fill="black"/>
<path d="M19.4861 5.6952C20.752 4.17559 21.3756 2.22238 21.2246 0.250366C19.2907 0.453489 17.5042 1.37779 16.2213 2.8391C15.594 3.55298 15.1136 4.3835 14.8075 5.28317C14.5013 6.18285 14.3755 7.13403 14.4373 8.08235C15.4046 8.0923 16.3615 7.88264 17.2361 7.46915C18.1106 7.05565 18.8799 6.44911 19.4861 5.6952Z" fill="black"/>
</svg>
